# xmcd
#
# Track frame offsets:
#	150
#	13669
#	30011
#	52127
#	68381
#	83119
#	108789
#	123503
#	145025
#	160266
#	171044
#	189770
#
# Disc length: 2744 seconds
#
# Revision: 1
# Processed by: cddbd v1.4PL0 Copyright (c) Steve Scherf et al.
# Submitted via: EasyCDDAExtractor 5.0.7
#
DISCID=870ab60c
DTITLE=Debbie Davies - Key To Love
DYEAR=2003
DGENRE=Blues
TTITLE0=Light The Fuse
TTITLE1=Chicago Line (w/James Cotton)
TTITLE2=Hard Road (W/ Mick Taylor)
TTITLE3=Room To Move (W/ James Cotton)
TTITLE4=Takin' It All To Vegas
TTITLE5=Dream About The Blues
TTITLE6=Hey To Love
TTITLE7=I Should Know Better
TTITLE8=I'm A Sucker For Love
TTITLE9=Steppin' Out
TTITLE10=Nature's Disappearing (w/Peter Green)
TTITLE11=I Just Came To Play
EXTD=
EXTT0=
EXTT1=
EXTT2=
EXTT3=
EXTT4=
EXTT5=
EXTT6=
EXTT7=
EXTT8=
EXTT9=
EXTT10=
EXTT11=
PLAYORDER=
